<svg xmlns="http://www.w3.org/2000/svg" viewBox="0 0 1280 720">
  <defs>
    <linearGradient id="fundo" x1="0" y1="0" x2="1" y2="1"><stop offset="0" stop-color="#C48229"/><stop offset="1" stop-color="#5C2410"/></linearGradient>
    <linearGradient id="bolo" x1="0" y1="0" x2="0" y2="1"><stop offset="0" stop-color="#FFF7E8"/><stop offset="1" stop-color="#F6DDB0"/></linearGradient>
  </defs>
  <rect width="1280" height="720" fill="url(#fundo)"/>
  <g opacity=".9">
    <rect x="120" y="90" width="16" height="34" rx="3" fill="#FFE7C2" transform="rotate(25 128 107)"/>
    <rect x="260" y="200" width="14" height="30" rx="3" fill="#E9A04A" transform="rotate(-30 267 215)"/>
    <rect x="1040" y="110" width="16" height="34" rx="3" fill="#FFE7C2" transform="rotate(-20 1048 127)"/>
    <rect x="1150" y="260" width="14" height="30" rx="3" fill="#F6C982" transform="rotate(40 1157 275)"/>
    <rect x="980" y="330" width="12" height="26" rx="3" fill="#FFF7E8" transform="rotate(10 986 343)"/>
    <rect x="190" y="360" width="12" height="26" rx="3" fill="#F6C982" transform="rotate(-15 196 373)"/>
    <circle cx="350" cy="230" r="9" fill="#FFF7E8"/>
    <circle cx="930" cy="220" r="11" fill="#F6C982"/>
    <circle cx="1100" cy="420" r="8" fill="#FFE7C2"/>
    <circle cx="90" cy="250" r="7" fill="#FFE7C2"/>
  </g>
  <!-- balões -->
  <g>
    <path d="M1010 470 C1000 520 1030 560 1020 610" stroke="#FFE7C2" stroke-width="3" fill="none"/>
    <ellipse cx="1010" cy="400" rx="62" ry="76" fill="#E9A04A"/>
    <ellipse cx="990" cy="375" rx="14" ry="22" fill="#FFF7E8" opacity=".5"/>
    <path d="M1130 430 C1120 490 1150 540 1135 610" stroke="#FFE7C2" stroke-width="3" fill="none"/>
    <ellipse cx="1130" cy="360" rx="54" ry="66" fill="#FFF7E8"/>
    <path d="M250 480 C260 530 230 570 245 620" stroke="#FFE7C2" stroke-width="3" fill="none"/>
    <ellipse cx="250" cy="410" rx="60" ry="74" fill="#F6C982"/>
    <ellipse cx="232" cy="385" rx="13" ry="21" fill="#FFF7E8" opacity=".55"/>
  </g>
  <!-- bolo -->
  <g transform="translate(640 400)">
    <rect x="-210" y="40" width="420" height="150" rx="18" fill="url(#bolo)"/>
    <path d="M-210 70 Q-175 105 -140 70 T-70 70 T0 70 T70 70 T140 70 T210 70 V58 H-210Z" fill="#C48229"/>
    <rect x="-150" y="-70" width="300" height="115" rx="16" fill="url(#bolo)"/>
    <path d="M-150 -40 Q-118 -8 -86 -40 T-22 -40 T42 -40 T106 -40 T150 -40 V-52 H-150Z" fill="#92611F"/>
    <g fill="#FFF7E8" stroke="#92611F" stroke-width="3">
      <rect x="-80" y="-150" width="18" height="80" rx="6"/>
      <rect x="-9" y="-160" width="18" height="90" rx="6"/>
      <rect x="62" y="-150" width="18" height="80" rx="6"/>
    </g>
    <g fill="#FFD27A">
      <path d="M-71 -190 C-58 -170 -60 -158 -71 -152 C-82 -158 -84 -170 -71 -190Z"/>
      <path d="M0 -200 C13 -180 11 -168 0 -162 C-11 -168 -13 -180 0 -200Z"/>
      <path d="M71 -190 C84 -170 82 -158 71 -152 C60 -158 58 -170 71 -190Z"/>
    </g>
    <rect x="-250" y="186" width="500" height="18" rx="9" fill="#3D2A10" opacity=".55"/>
  </g>
  <text x="640" y="120" text-anchor="middle" font-family="Arial, sans-serif" font-weight="900" font-size="46" fill="#FFF7E8" letter-spacing="10">FELIZ ANIVERSÁRIO</text>
</svg>
